Coordinates
version=1
nRows=21
nColumns=22
inDegrees=yes

Units are S.I. units (second, meters, Newtons, ...)
If the header above contains a line with 'inDegrees', this indicates whether rotational values are in degrees (yes) or radians (no).

endheader
time	pelvis_tilt	pelvis_list	pelvis_rotation	pelvis_tx	pelvis_ty	pelvis_tz	hip_flexion_r	hip_adduction_r	hip_rotation_r	knee_angle_r	ankle_angle_r	subtalar_angle_r	hip_flexion_l	hip_adduction_l	hip_rotation_l	knee_angle_l	ankle_angle_l	subtalar_angle_l	lumbar_extension	lumbar_bending	lumbar_rotation
      1.72000000	      5.94546472	      1.47654805	    145.42233102	     -0.24601449	      0.92179828	      0.89445903	      9.76079014	     16.28842040	      4.78720776	    -17.47506575	      9.85178849	     -6.48456077	     27.22416924	    -10.56255439	      8.03676183	    -65.69433267	      4.65623341	      0.87813711	     -7.84249606	      5.48410114	     -5.90250880
      1.73000000	      5.96227008	      1.45216056	    144.23618790	     -0.25060540	      0.92218974	      0.88725722	      8.56482410	     16.52354763	      6.10280284	    -16.64371851	      9.74090024	     -6.54031561	     28.22357725	    -10.55450207	      8.29370743	    -64.53706061	      5.23217014	      0.49790351	     -7.81129602	      5.35918466	     -5.12872545
      1.74000000	      5.96157780	      1.42804553	    143.07338604	     -0.25523606	      0.92255616	      0.88006674	      7.33848065	     16.70204006	      7.41879376	    -15.80208146	      9.64621090	     -6.61242203	     29.12300077	    -10.51193035	      8.55498313	    -63.16247728	      5.79504123	      0.11459696	     -7.78811016	      5.23673596	     -4.38294019
      1.75000000	      6.01553008	      1.37600453	    141.92621046	     -0.25986379	      0.92273197	      0.87291236	      6.19635159	     16.85110060	      8.72482666	    -15.00227820	      9.56851935	     -6.66371359	     30.02152163	    -10.45826357	      8.82672147	    -61.60495361	      6.33238699	     -0.11322125	     -7.68729506	      5.14409674	     -3.65090877
      1.76000000	      5.90798958	      1.35269604	    140.83425244	     -0.26467635	      0.92313736	      0.86582759	      4.86783218	     16.85868333	      9.99343780	    -14.15790040	      9.48372582	     -6.80254009	     30.63470539	    -10.26667240	      9.10873618	    -59.78535367	      6.81289445	     -0.56456274	     -7.74886018	      4.98616793	     -3.00988913
      1.77000000	      5.93776616	      1.26875481	    139.74038567	     -0.26941356	      0.92315037	      0.85880227	      3.75721861	     16.87565333	     11.24964249	    -13.41526651	      9.43422739	     -6.87417306	     31.36433704	    -10.10616768	      9.39811011	    -57.83157032	      7.19464892	     -0.73221548	     -7.63963214	      4.89101337	     -2.34075540
      1.78000000	      5.83781890	      1.21509741	    138.71255535	     -0.27434284	      0.92329661	      0.85187734	      2.51533258	     16.77310694	     12.41651901	    -12.65576669	      9.40998313	     -7.01844696	     31.85196067	     -9.81891167	      9.72989531	    -55.64939863	      7.46523252	     -0.95000618	     -7.66403314	      4.75302303	     -1.76902722
      1.79000000	      5.79472552	      1.12254791	    137.69929226	     -0.27926628	      0.92318864	      0.84502455	      1.40219717	     16.64748414	     13.55264569	    -11.97848639	      9.41831058	     -7.12194267	     32.35161862	     -9.51530848	     10.08810282	    -53.32072438	      7.58825629	     -0.98193204	     -7.61083590	      4.64152383	     -1.19243749
      1.80000000	      5.77771623	      0.99246670	    136.70480679	     -0.28422650	      0.92287518	      0.83821678	      0.37635834	     16.47986704	     14.63762507	    -11.35492196	      9.47213091	     -7.19531128	     32.82975037	     -9.18524505	     10.45329297	    -50.84693600	      7.53940001	     -0.89430850	     -7.50383997	      4.53441501	     -0.61070485
      1.81000000	      5.69822491	      0.88026110	    135.76721912	     -0.28931092	      0.92253275	      0.83146704	     -0.68286665	     16.24852559	     15.63424325	    -10.76010359	      9.56311808	     -7.30162493	     33.15318362	     -8.78104222	     10.88196101	    -48.20347772	      7.40021241	     -0.62975934	     -7.46479448	      4.40910645	     -0.08834211
      1.82000000	      5.62237757	      0.74957743	    134.87042007	     -0.29447011	      0.92202057	      0.82474579	     -1.68220422	     15.98294359	     16.54675502	    -10.21961330	      9.70290296	     -7.40698327	     33.42082220	     -8.34508202	     11.35111355	    -45.42892978	      7.15388593	     -0.17356205	     -7.40505255	      4.28199036	      0.40878564
      1.83000000	      5.53188730	      0.63615557	    134.04654328	     -0.29974565	      0.92138499	      0.81804835	     -2.66948596	     15.70218256	     17.34764898	     -9.71699119	      9.85989863	     -7.54682677	     33.59252234	     -7.87948375	     11.90834897	    -42.52700031	      6.88501912	      0.64285596	     -7.36838258	      4.16693425	      0.83694397
      1.84000000	      5.44824696	      0.50215206	    133.24575319	     -0.30505320	      0.92056595	      0.81130480	     -3.58580467	     15.40487882	     18.09598599	     -9.29613677	     10.07579547	     -7.65736714	     33.71896011	     -7.42833381	     12.44321355	    -39.53089562	      6.54597213	      1.49859387	     -7.30846068	      4.03882359	      1.27040498
      1.85000000	      5.34119700	      0.37504585	    132.47688703	     -0.31042078	      0.91963177	      0.80449603	     -4.47821868	     15.09224026	     18.76433244	     -8.95385873	     10.36381547	     -7.76129714	     33.75839183	     -6.99643817	     12.93250434	    -36.45963588	      6.14531844	      2.34595267	     -7.27217566	      3.89356110	      1.70213636
      1.86000000	      5.24499989	      0.28779665	    131.80604514	     -0.31598406	      0.91854335	      0.79761582	     -5.39305438	     14.81024608	     19.31770210	     -8.59770487	     10.58844594	     -7.92312066	     33.72905725	     -6.58793976	     13.48276002	    -33.36101335	      5.89253854	      3.50807919	     -7.24067353	      3.79478625	      2.02583083
      1.87000000	      5.10472027	      0.22566051	    131.14517313	     -0.32160790	      0.91738977	      0.79059150	     -6.32256795	     14.51377183	     19.80025622	     -8.32114264	     10.89223168	     -8.06385665	     33.59383419	     -6.22329338	     13.89311827	    -30.26706004	      5.62610996	      4.46183319	     -7.26175580	      3.66607373	      2.37629771
      1.88000000	      4.95282549	      0.18957777	    130.53342708	     -0.32734083	      0.91611432	      0.78340453	     -7.27307202	     14.22826721	     20.24172374	     -8.06597082	     11.17767327	     -8.22525763	     33.39644767	     -5.89854775	     14.20945321	    -27.24081630	      5.44160748	      5.46020584	     -7.29682281	      3.53527289	      2.64423134
      1.89000000	      4.75785956	      0.20099196	    129.92374899	     -0.33317127	      0.91480494	      0.77603173	     -8.27371879	     13.93714632	     20.60905839	     -7.86359729	     11.48241183	     -8.36506293	     33.09249238	     -5.61831922	     14.37894314	    -24.33458461	      5.33714330	      6.25366311	     -7.39456794	      3.39167826	      2.94008272
      1.90000000	      4.54522835	      0.21553021	    129.32520683	     -0.33907259	      0.91338138	      0.76845552	     -9.27893485	     13.63126990	     20.97583814	     -7.69897695	     11.82759638	     -8.48271334	     32.75482033	     -5.36082014	     14.40388544	    -21.62009541	      5.27531642	      6.88484224	     -7.48952655	      3.21755925	      3.17941099
      1.91000000	      4.32671534	      0.28529479	    128.72862034	     -0.34505408	      0.91191240	      0.76067835	    -10.32988514	     13.34832470	     21.31051182	     -7.55915321	     12.10567562	     -8.61659443	     32.35534639	     -5.15366277	     14.36951788	    -19.16618273	      5.34059406	      7.44799743	     -7.62259836	      3.06515613	      3.44512076
      1.92000000	      4.11402926	      0.36622991	    128.13437066	     -0.35109668	      0.91034577	      0.75269331	    -11.37182952	     13.07262205	     21.61650670	     -7.46580546	     12.35788343	     -8.75383307	     31.95775271	     -4.96855640	     14.28032517	    -17.05642572	      5.48631199	      7.83274456	     -7.74019933	      2.90913817	      3.71176175
